<?xml version="1.0" encoding="utf-8"?>
<!-- Generator: Adobe Illustrator 23.1.0, SVG Export Plug-In . SVG Version: 6.00 Build 0)  -->
<svg version="1.1" id="Laag_1" xmlns="http://www.w3.org/2000/svg" xmlns:xlink="http://www.w3.org/1999/xlink" x="0px" y="0px"
	 viewBox="0 0 1434.4 211.8" style="enable-background:new 0 0 1434.4 211.8;" xml:space="preserve">
<style type="text/css">
	.st0{fill:var(--accentColor);}
	.st1{fill:var(--onAccentColor);}
</style>
	<g id="Versie_2">
	<g id="R_ster_T">
		<g>
			<path d="M630.7,211.8c-38.4,0-65.4-21-67.2-51h28.2c1.5,15.9,15.6,27.9,38.7,27.9c21.6,0,33.6-10.8,33.6-24.3
				c0-36.6-97.2-15.3-97.2-76.5c0-25.2,23.7-45.9,60.3-45.9c36.3,0,60.3,19.5,62.1,51.6h-27.3c-1.2-16.5-13.8-28.5-35.7-28.5
				c-20.1,0-32.1,9.6-32.1,22.8c0,39,95.4,17.7,96.6,76.5C690.7,191.4,667,211.8,630.7,211.8z"/>
			<path d="M735.1,67.2h-21.3V44.7h21.3V3.3h27.3v41.4h42.9v22.5h-42.9v96.9c0,16.2,6,21.9,22.8,21.9h20.1v23.1h-24.6
				c-29.1,0-45.6-12-45.6-45V67.2z"/>
			<path d="M909.4,211.8c-46.8,0-81.3-33-81.3-85.2c0-51.9,33.3-84.6,81.3-84.6c47.7,0,78.9,33.6,78.9,78.6c0,5.5-0.3,11-0.9,16.5
				H856c2.1,33.3,25.5,51.6,53.4,51.6c24.6,0,40.2-12.6,46.2-30.3H985C976.6,188.4,950.2,211.8,909.4,211.8z M856.3,114.9h103.8
				c0.3-32.1-23.7-49.8-51.9-49.8C881.5,65.1,859.3,82.8,856.3,114.9L856.3,114.9z"/>
			<path d="M1051.6,209.1h-27.3V44.7h27.3v26.7c9.3-18.3,27-29.7,53.1-29.7v28.2h-7.2c-26.1,0-45.9,11.7-45.9,49.8V209.1z"/>
			<path d="M1238.2,210.9c-10.3,0-18.6-8.3-18.6-18.6s8.3-18.6,18.6-18.6l0,0c9.9,0,18,8.1,18,18.6S1248.1,210.9,1238.2,210.9z
				 M1222.3,0h29.4l-3.3,150h-22.8L1222.3,0z"/>
			<path d="M1292.8,0h141.6v22.2h-57v186.9h-27.3V22.2h-57.3L1292.8,0z"/>
		</g>
	</g>
		<path id="Afgeronde_rechthoek_1" class="st0" d="M195.4,38.2h123.7c13.8,0,25,11.2,25,25v123.7c0,13.8-11.2,25-25,25H195.4
		c-13.8,0-25-11.2-25-25V63.2C170.4,49.3,181.6,38.2,195.4,38.2z"/>
		<path id="Afgeronde_rechthoek_1-2" class="st0" d="M395.4,38.2h123.7c13.8,0,25,11.2,25,25v123.7c0,13.8-11.2,25-25,25H395.4
		c-13.8,0-25-11.2-25-25V63.2C370.4,49.3,381.6,38.2,395.4,38.2z"/>
		<path class="st1" d="M235.7,151.1L207.6,123l-9.6,9.5l37.6,37.6l80.8-80.8l-9.5-9.5L235.7,151.1z"/>
</g>
	<g>
	<path d="M67.5,2.7c49.2,0,72.6,27.3,72.6,61.5c0,26.7-14.7,52.2-49.8,60l52.5,87.6h-32.7l-49.8-85.5h-33v85.5H0V2.7H67.5z
		 M67.5,25.2H27.3v79.2h40.2c30.9,0,44.4-16.8,44.4-40.2C111.9,40.5,98.7,25.2,67.5,25.2z"/>
</g>
</svg>

