<?xml version="1.0" encoding="utf-8"?>
<!-- Generator: Adobe Illustrator 23.1.0, SVG Export Plug-In . SVG Version: 6.00 Build 0)  -->
<svg version="1.1" id="Laag_1" xmlns="http://www.w3.org/2000/svg" xmlns:xlink="http://www.w3.org/1999/xlink" x="0px" y="0px"
	 viewBox="0 0 24 24" style="enable-background:new 0 0 24 24;" xml:space="preserve">
<style type="text/css">
	.st0{fill:none;}
</style>
<path d="M14,9.2c0-0.1,0-0.1,0-0.2c0-2.2-1.8-4-4-4C9.9,5,9.9,5,9.8,5L14,9.2z M7.9,5.6L4.8,2.5L3.5,3.8l3.1,3.1C6.2,7.5,6,8.2,6,9
	c0,2.2,1.8,4,4,4c0.8,0,1.5-0.2,2.1-0.6l6.1,6.1l1.3-1.3l-6.1-6.1C13.4,11.1,7.9,5.6,7.9,5.6z M10,15c-2.7,0-8,1.3-8,4v2h16v-2
	C18,16.3,12.7,15,10,15z M17.8,5.4"/>
<path class="st0" d="M0,0h24v24H0V0z"/>
</svg>
